<svg xmlns="http://www.w3.org/2000/svg" width="512" height="512" viewBox="0 0 512 512">
  <defs>
    <linearGradient id="bg" x1="74" y1="46" x2="438" y2="466" gradientUnits="userSpaceOnUse">
      <stop offset="0" stop-color="#102A43"/>
      <stop offset="0.52" stop-color="#111827"/>
      <stop offset="1" stop-color="#06111F"/>
    </linearGradient>
    <linearGradient id="plate" x1="122" y1="104" x2="390" y2="408" gradientUnits="userSpaceOnUse">
      <stop offset="0" stop-color="#1E3A5F"/>
      <stop offset="1" stop-color="#0B1220"/>
    </linearGradient>
    <linearGradient id="hub" x1="178" y1="168" x2="334" y2="344" gradientUnits="userSpaceOnUse">
      <stop offset="0" stop-color="#67E8F9"/>
      <stop offset="0.48" stop-color="#3B82F6"/>
      <stop offset="1" stop-color="#8B5CF6"/>
    </linearGradient>
    <linearGradient id="coolFlow" x1="116" y1="122" x2="396" y2="224" gradientUnits="userSpaceOnUse">
      <stop offset="0" stop-color="#818CF8"/>
      <stop offset="0.5" stop-color="#38BDF8"/>
      <stop offset="1" stop-color="#22D3EE"/>
    </linearGradient>
    <linearGradient id="warmFlow" x1="116" y1="390" x2="396" y2="282" gradientUnits="userSpaceOnUse">
      <stop offset="0" stop-color="#F59E0B"/>
      <stop offset="0.52" stop-color="#FBBF24"/>
      <stop offset="1" stop-color="#34D399"/>
    </linearGradient>
    <filter id="shadow" x="-20%" y="-20%" width="140%" height="150%">
      <feDropShadow dx="0" dy="18" stdDeviation="22" flood-color="#000814" flood-opacity="0.48"/>
    </filter>
    <filter id="glow" x="-25%" y="-25%" width="150%" height="150%">
      <feGaussianBlur stdDeviation="7" result="blur"/>
      <feColorMatrix in="blur" type="matrix" values="0 0 0 0 0.22 0 0 0 0 0.62 0 0 0 0 1 0 0 0 0.46 0"/>
      <feMerge>
        <feMergeNode/>
        <feMergeNode in="SourceGraphic"/>
      </feMerge>
    </filter>
  </defs>

  <rect width="512" height="512" rx="108" fill="url(#bg)"/>
  <path d="M74 355C121 436 225 468 318 437C406 408 459 322 433 229C407 137 326 74 236 78C145 82 77 151 62 235C55 277 54 323 74 355Z" fill="#1D4ED8" opacity="0.13"/>
  <path d="M374 82C424 111 451 159 445 207C439 256 402 296 353 310C305 323 251 309 220 272C188 235 178 179 204 134C230 90 323 53 374 82Z" fill="#06B6D4" opacity="0.08"/>

  <g filter="url(#shadow)">
    <path d="M256 88L402 172V340L256 424L110 340V172L256 88Z" fill="url(#plate)" stroke="rgba(148,163,184,0.25)" stroke-width="4"/>
    <path d="M256 123L372 190V322L256 389L140 322V190L256 123Z" fill="none" stroke="#38BDF8" stroke-width="5" opacity="0.16"/>
  </g>

  <g stroke-linecap="round" stroke-linejoin="round" filter="url(#glow)">
    <path d="M256 256L256 126" stroke="#38BDF8" stroke-width="28"/>
    <path d="M256 256L386 256" stroke="url(#coolFlow)" stroke-width="28"/>
    <path d="M256 256L256 386" stroke="#FBBF24" stroke-width="28"/>
    <path d="M256 256L126 256" stroke="url(#warmFlow)" stroke-width="28"/>
  </g>

  <g filter="url(#shadow)">
    <circle cx="256" cy="116" r="48" fill="#0B1220" stroke="#22D3EE" stroke-width="16"/>
    <circle cx="396" cy="256" r="48" fill="#0B1220" stroke="#60A5FA" stroke-width="16"/>
    <circle cx="256" cy="396" r="48" fill="#0B1220" stroke="#FBBF24" stroke-width="16"/>
    <circle cx="116" cy="256" r="48" fill="#0B1220" stroke="#34D399" stroke-width="16"/>
  </g>

  <g filter="url(#shadow)">
    <circle cx="256" cy="256" r="94" fill="#09111F" stroke="url(#hub)" stroke-width="16"/>
    <path d="M256 184L322 222V290L256 328L190 290V222L256 184Z" fill="#E0F2FE"/>
    <path d="M256 214L296 237V279L256 302L216 279V237L256 214Z" fill="#0F172A"/>
    <circle cx="256" cy="256" r="17" fill="#67E8F9"/>
  </g>

  <g fill="#E0F2FE" opacity="0.95">
    <circle cx="256" cy="116" r="14"/>
    <circle cx="396" cy="256" r="14"/>
    <circle cx="256" cy="396" r="14"/>
    <circle cx="116" cy="256" r="14"/>
  </g>
</svg>
